<svg width="448" height="95" viewBox="0 0 448 95" fill="none" xmlns="http://www.w3.org/2000/svg">
<mask id="path-1-outside-1_375_1090" maskUnits="userSpaceOnUse" x="0" y="0" width="448" height="95" fill="black">
<rect fill="white" width="448" height="95"/>
<path d="M2.4 2.376H30.816V71.496H58.208V93H2.4V2.376ZM67.15 93V2.376H95.566V93H67.15ZM108.4 93V2.376H172.4V24.904H136.816V37.448H162.416V58.824H136.816V93H108.4ZM242.441 2.376V25.032H210.441V36.168H238.601V57.544H210.441V70.344H242.441V93H182.025V2.376H242.441ZM337.492 93L333.012 79.304H302.804L298.324 93H268.5L301.652 2.376H334.42L367.444 93H337.492ZM326.1 57.928L317.908 32.712L309.716 57.928H326.1ZM368.78 24.904V2.376H445.068V24.904H421.004V93H392.588V24.904H368.78Z"/>
</mask>
<path d="M2.4 2.376V0.375999H0.4V2.376H2.4ZM30.816 2.376H32.816V0.375999H30.816V2.376ZM30.816 71.496H28.816V73.496H30.816V71.496ZM58.208 71.496H60.208V69.496H58.208V71.496ZM58.208 93V95H60.208V93H58.208ZM2.4 93H0.4V95H2.4V93ZM2.4 2.376V4.376H30.816V2.376V0.375999H2.4V2.376ZM30.816 2.376H28.816V71.496H30.816H32.816V2.376H30.816ZM30.816 71.496V73.496H58.208V71.496V69.496H30.816V71.496ZM58.208 71.496H56.208V93H58.208H60.208V71.496H58.208ZM58.208 93V91H2.4V93V95H58.208V93ZM2.4 93H4.4V2.376H2.4H0.4V93H2.4ZM67.15 93H65.15V95H67.15V93ZM67.15 2.376V0.375999H65.15V2.376H67.15ZM95.566 2.376H97.566V0.375999H95.566V2.376ZM95.566 93V95H97.566V93H95.566ZM67.15 93H69.15V2.376H67.15H65.15V93H67.15ZM67.15 2.376V4.376H95.566V2.376V0.375999H67.15V2.376ZM95.566 2.376H93.566V93H95.566H97.566V2.376H95.566ZM95.566 93V91H67.15V93V95H95.566V93ZM108.4 93H106.4V95H108.4V93ZM108.4 2.376V0.375999H106.4V2.376H108.4ZM172.4 2.376H174.4V0.375999H172.4V2.376ZM172.4 24.904V26.904H174.4V24.904H172.4ZM136.816 24.904V22.904H134.816V24.904H136.816ZM136.816 37.448H134.816V39.448H136.816V37.448ZM162.416 37.448H164.416V35.448H162.416V37.448ZM162.416 58.824V60.824H164.416V58.824H162.416ZM136.816 58.824V56.824H134.816V58.824H136.816ZM136.816 93V95H138.816V93H136.816ZM108.4 93H110.4V2.376H108.4H106.4V93H108.4ZM108.4 2.376V4.376H172.4V2.376V0.375999H108.4V2.376ZM172.4 2.376H170.4V24.904H172.4H174.4V2.376H172.4ZM172.4 24.904V22.904H136.816V24.904V26.904H172.4V24.904ZM136.816 24.904H134.816V37.448H136.816H138.816V24.904H136.816ZM136.816 37.448V39.448H162.416V37.448V35.448H136.816V37.448ZM162.416 37.448H160.416V58.824H162.416H164.416V37.448H162.416ZM162.416 58.824V56.824H136.816V58.824V60.824H162.416V58.824ZM136.816 58.824H134.816V93H136.816H138.816V58.824H136.816ZM136.816 93V91H108.4V93V95H136.816V93ZM242.441 2.376H244.441V0.375999H242.441V2.376ZM242.441 25.032V27.032H244.441V25.032H242.441ZM210.441 25.032V23.032H208.441V25.032H210.441ZM210.441 36.168H208.441V38.168H210.441V36.168ZM238.601 36.168H240.601V34.168H238.601V36.168ZM238.601 57.544V59.544H240.601V57.544H238.601ZM210.441 57.544V55.544H208.441V57.544H210.441ZM210.441 70.344H208.441V72.344H210.441V70.344ZM242.441 70.344H244.441V68.344H242.441V70.344ZM242.441 93V95H244.441V93H242.441ZM182.025 93H180.025V95H182.025V93ZM182.025 2.376V0.375999H180.025V2.376H182.025ZM242.441 2.376H240.441V25.032H242.441H244.441V2.376H242.441ZM242.441 25.032V23.032H210.441V25.032V27.032H242.441V25.032ZM210.441 25.032H208.441V36.168H210.441H212.441V25.032H210.441ZM210.441 36.168V38.168H238.601V36.168V34.168H210.441V36.168ZM238.601 36.168H236.601V57.544H238.601H240.601V36.168H238.601ZM238.601 57.544V55.544H210.441V57.544V59.544H238.601V57.544ZM210.441 57.544H208.441V70.344H210.441H212.441V57.544H210.441ZM210.441 70.344V72.344H242.441V70.344V68.344H210.441V70.344ZM242.441 70.344H240.441V93H242.441H244.441V70.344H242.441ZM242.441 93V91H182.025V93V95H242.441V93ZM182.025 93H184.025V2.376H182.025H180.025V93H182.025ZM182.025 2.376V4.376H242.441V2.376V0.375999H182.025V2.376ZM337.492 93L335.591 93.6218L336.042 95H337.492V93ZM333.012 79.304L334.913 78.6822L334.462 77.304H333.012V79.304ZM302.804 79.304V77.304H301.354L300.903 78.6822L302.804 79.304ZM298.324 93V95H299.774L300.225 93.6218L298.324 93ZM268.5 93L266.622 92.3129L265.639 95H268.5V93ZM301.652 2.376V0.375999H300.254L299.774 1.68889L301.652 2.376ZM334.42 2.376L336.299 1.69123L335.82 0.375999H334.42V2.376ZM367.444 93V95H370.301L369.323 92.3152L367.444 93ZM326.1 57.928V59.928H328.853L328.002 57.31L326.1 57.928ZM317.908 32.712L319.81 32.094L317.908 26.239L316.006 32.094L317.908 32.712ZM309.716 57.928L307.814 57.31L306.963 59.928H309.716V57.928ZM337.492 93L339.393 92.3782L334.913 78.6822L333.012 79.304L331.111 79.9258L335.591 93.6218L337.492 93ZM333.012 79.304V77.304H302.804V79.304V81.304H333.012V79.304ZM302.804 79.304L300.903 78.6822L296.423 92.3782L298.324 93L300.225 93.6218L304.705 79.9258L302.804 79.304ZM298.324 93V91H268.5V93V95H298.324V93ZM268.5 93L270.378 93.6871L303.53 3.06311L301.652 2.376L299.774 1.68889L266.622 92.3129L268.5 93ZM301.652 2.376V4.376H334.42V2.376V0.375999H301.652V2.376ZM334.42 2.376L332.541 3.06076L365.565 93.6848L367.444 93L369.323 92.3152L336.299 1.69123L334.42 2.376ZM367.444 93V91H337.492V93V95H367.444V93ZM326.1 57.928L328.002 57.31L319.81 32.094L317.908 32.712L316.006 33.3299L324.198 58.546L326.1 57.928ZM317.908 32.712L316.006 32.094L307.814 57.31L309.716 57.928L311.618 58.546L319.81 33.3299L317.908 32.712ZM309.716 57.928V59.928H326.1V57.928V55.928H309.716V57.928ZM368.78 24.904H366.78V26.904H368.78V24.904ZM368.78 2.376V0.375999H366.78V2.376H368.78ZM445.068 2.376H447.068V0.375999H445.068V2.376ZM445.068 24.904V26.904H447.068V24.904H445.068ZM421.004 24.904V22.904H419.004V24.904H421.004ZM421.004 93V95H423.004V93H421.004ZM392.588 93H390.588V95H392.588V93ZM392.588 24.904H394.588V22.904H392.588V24.904ZM368.78 24.904H370.78V2.376H368.78H366.78V24.904H368.78ZM368.78 2.376V4.376H445.068V2.376V0.375999H368.78V2.376ZM445.068 2.376H443.068V24.904H445.068H447.068V2.376H445.068ZM445.068 24.904V22.904H421.004V24.904V26.904H445.068V24.904ZM421.004 24.904H419.004V93H421.004H423.004V24.904H421.004ZM421.004 93V91H392.588V93V95H421.004V93ZM392.588 93H394.588V24.904H392.588H390.588V93H392.588ZM392.588 24.904V22.904H368.78V24.904V26.904H392.588V24.904Z" fill="#FF870B" mask="url(#path-1-outside-1_375_1090)"/>
</svg>
